<svg width="177" height="107" viewBox="0 0 177 107" fill="none" xmlns="http://www.w3.org/2000/svg">
<line x1="177" y1="102.46" x2="15.9994" y2="102.46" stroke="#323232" stroke-width="6.91935"/>
<path d="M14.2988 101.026L155.174 2" stroke="#323232" stroke-width="4.6129"/>
<path d="M138.62 15L12 102.5L138.62 102.013V15Z" fill="#323232" stroke="#323232" stroke-width="6.91935"/>
<path fill-rule="evenodd" clip-rule="evenodd" d="M105.501 51.3511C102.572 54.5989 100.707 59.4954 100.707 64.9727C100.707 74.7515 106.651 82.6788 113.983 82.6788C121.316 82.6788 127.26 74.7515 127.26 64.9727C127.26 63.3096 127.088 61.7001 126.766 60.174L105.501 51.3511Z" fill="white"/>
<path fill-rule="evenodd" clip-rule="evenodd" d="M74.9803 69.1889C74.781 70.3451 74.6758 71.5484 74.6758 72.7842C74.6758 81.7001 80.1536 88.9279 86.9109 88.9279C93.6681 88.9279 99.146 81.7001 99.146 72.7842C99.146 67.257 97.0408 62.3786 93.8308 59.4687L74.9803 69.1889Z" fill="white"/>
<ellipse cx="114.601" cy="64.3377" rx="4.86897" ry="6.49351" fill="#231816"/>
<ellipse cx="88.6326" cy="73.4286" rx="4.86897" ry="6.49351" fill="#231816"/>
</svg>
