<?xml version="1.0" encoding="utf-8"?>
<!-- Generator: Adobe Illustrator 28.3.0, SVG Export Plug-In . SVG Version: 6.00 Build 0)  -->
<svg version="1.1" id="Layer_1" xmlns="http://www.w3.org/2000/svg" xmlns:xlink="http://www.w3.org/1999/xlink" x="0px" y="0px"
	 viewBox="0 0 63 48" style="enable-background:new 0 0 63 48;" xml:space="preserve">
<style type="text/css">
	.st0{fill:#C20D07;}
</style>
<path class="st0" d="M44.5,23.9c4.3,0,8,1.1,11.2,3.3c3.2,2.2,4.8,5.3,4.8,9.2c0,3.3-1.1,6-3.3,7.9c-2.1,1.8-4.7,2.7-7.9,2.7
	c-4.2,0-7.6-1.5-10.4-4.6c-2.8-3.2-4.2-7.1-4.2-11.9c0-4.9,1-9.3,3.1-13.3c2.2-4.2,5.4-7.7,9.6-10.6c4.2-3.1,9.2-5.3,15.2-6.7v7.1
	c-6.4,1.8-11,4.2-13.7,7.3C46.3,17.3,44.8,20.5,44.5,23.9z M9.6,23.9c4.4,0,8.2,1.1,11.2,3.3c3.2,2.2,4.8,5.3,4.8,9.2
	c0,3.3-1.1,6-3.3,7.9c-2.1,1.8-4.7,2.7-7.9,2.7c-4.2,0-7.6-1.5-10.4-4.6c-2.6-3.2-4-7.1-4-11.9c0-4.9,1-9.3,3.1-13.3
	c2.1-4.2,5.2-7.7,9.4-10.6c4.2-3.1,9.2-5.3,15.2-6.7v7.1c-6.4,1.8-10.9,4.2-13.5,7.3C11.5,17.3,10,20.5,9.6,23.9z"/>
</svg>
